<?xml version="1.0" encoding="UTF-8"?>
<!DOCTYPE svg PUBLIC "-//W3C//DTD SVG 1.1//EN" "http://www.w3.org/Graphics/SVG/1.1/DTD/svg11.dtd">
<svg xmlns="http://www.w3.org/2000/svg" version="1.1" width="45px" height="45px" style="shape-rendering:geometricPrecision; text-rendering:geometricPrecision; image-rendering:optimizeQuality; fill-rule:evenodd; clip-rule:evenodd" xmlns:xlink="http://www.w3.org/1999/xlink">
<g><path style="opacity:0.839" fill="#b4dee9" d="M 33.5,30.5 C 33.6653,26.8183 33.4986,23.1516 33,19.5C 31.6439,18.6198 30.1439,18.2865 28.5,18.5C 26.7816,17.776 24.9483,17.1094 23,16.5C 22.5357,17.0944 22.369,17.7611 22.5,18.5C 22.1667,18.5 21.8333,18.5 21.5,18.5C 21.1667,18.5 20.8333,18.5 20.5,18.5C 19.8333,18.1667 19.1667,17.8333 18.5,17.5C 18.6716,16.5084 18.3382,15.8417 17.5,15.5C 16.4489,14.7777 15.7822,13.7777 15.5,12.5C 29.4794,8.29337 35.9794,13.6267 35,28.5C 34.7216,29.4158 34.2216,30.0825 33.5,30.5 Z M 28.5,18.5 C 26.5,18.5 24.5,18.5 22.5,18.5C 22.369,17.7611 22.5357,17.0944 23,16.5C 24.9483,17.1094 26.7816,17.776 28.5,18.5 Z"/></g>
<g><path style="opacity:1" fill="#e8b8ac" d="M 17.5,15.5 C 18.3382,15.8417 18.6716,16.5084 18.5,17.5C 17.6586,19.3792 17.3253,21.3792 17.5,23.5C 11.6138,23.6588 11.1138,22.3255 16,19.5C 16.6667,18.5 16.6667,17.5 16,16.5C 14.0371,20.0868 12.5371,20.0868 11.5,16.5C 13.396,15.5344 15.396,15.2011 17.5,15.5 Z"/></g>
<g><path style="opacity:0.692" fill="#abcedb" d="M 9.5,19.5 C 11.256,20.5521 11.9227,22.2188 11.5,24.5C 13.8333,24.5 16.1667,24.5 18.5,24.5C 18.2627,23.209 18.596,22.209 19.5,21.5C 20.1667,21.5 20.8333,21.5 21.5,21.5C 21.8432,23.4832 21.1765,24.8166 19.5,25.5C 19.1667,25.5 18.8333,25.5 18.5,25.5C 17.8333,25.5 17.5,25.8333 17.5,26.5C 17.5,27.5 17.5,28.5 17.5,29.5C 15.5,28.8333 13.5,28.1667 11.5,27.5C 11.7373,28.791 11.404,29.791 10.5,30.5C 10.1667,30.5 9.83333,30.5 9.5,30.5C 8.28542,26.6992 8.28542,23.0326 9.5,19.5 Z"/></g>
<g><path style="opacity:1" fill="#b59397" d="M 15.5,12.5 C 15.7822,13.7777 16.4489,14.7777 17.5,15.5C 15.396,15.2011 13.396,15.5344 11.5,16.5C 12.5371,20.0868 14.0371,20.0868 16,16.5C 16.6667,17.5 16.6667,18.5 16,19.5C 11.1138,22.3255 11.6138,23.6588 17.5,23.5C 17.3253,21.3792 17.6586,19.3792 18.5,17.5C 19.1667,17.8333 19.8333,18.1667 20.5,18.5C 19.8902,19.391 19.5569,20.391 19.5,21.5C 18.596,22.209 18.2627,23.209 18.5,24.5C 16.1667,24.5 13.8333,24.5 11.5,24.5C 11.9227,22.2188 11.256,20.5521 9.5,19.5C 9.70965,15.6242 11.7096,13.2909 15.5,12.5 Z"/></g>
<g><path style="opacity:1" fill="#8fb3cc" d="M 21.5,18.5 C 21.8333,18.5 22.1667,18.5 22.5,18.5C 24.5,18.5 26.5,18.5 28.5,18.5C 30.1439,18.2865 31.6439,18.6198 33,19.5C 33.4986,23.1516 33.6653,26.8183 33.5,30.5C 33.5,30.8333 33.5,31.1667 33.5,31.5C 29.8333,31.5 26.1667,31.5 22.5,31.5C 22.9227,29.2188 22.256,27.5521 20.5,26.5C 19.8333,26.5 19.5,26.1667 19.5,25.5C 21.1765,24.8166 21.8432,23.4832 21.5,21.5C 21.5,20.5 21.5,19.5 21.5,18.5 Z"/></g>
<g><path style="opacity:1" fill="#c7e0e9" d="M 23.5,22.5 C 24.2389,22.369 24.9056,22.5357 25.5,23C 23.6667,27.8333 25.1667,29.3333 30,27.5C 30.2022,25.7444 30.7022,24.0777 31.5,22.5C 32.48,25.0865 32.8134,27.7531 32.5,30.5C 29.5,30.5 26.5,30.5 23.5,30.5C 23.5,27.8333 23.5,25.1667 23.5,22.5 Z"/></g>
<g><path style="opacity:0.959" fill="#a490a2" d="M 18.5,25.5 C 18.8333,25.5 19.1667,25.5 19.5,25.5C 19.5,26.1667 19.8333,26.5 20.5,26.5C 21.038,28.1172 21.3713,29.7839 21.5,31.5C 17.6286,31.815 13.9619,31.4816 10.5,30.5C 11.404,29.791 11.7373,28.791 11.5,27.5C 13.5,28.1667 15.5,28.8333 17.5,29.5C 17.5,28.5 17.5,27.5 17.5,26.5C 18.1667,26.5 18.5,26.1667 18.5,25.5 Z"/></g>
<g><path style="opacity:0.403" fill="#726e8a" d="M 20.5,26.5 C 22.256,27.5521 22.9227,29.2188 22.5,31.5C 26.1667,31.5 29.8333,31.5 33.5,31.5C 26.6866,32.4912 19.6866,32.8245 12.5,32.5C 11.1266,32.6567 9.79323,32.49 8.5,32C 9.05596,31.6174 9.38929,31.1174 9.5,30.5C 9.83333,30.5 10.1667,30.5 10.5,30.5C 13.9619,31.4816 17.6286,31.815 21.5,31.5C 21.3713,29.7839 21.038,28.1172 20.5,26.5 Z"/></g>
<g><path style="opacity:0.206" fill="#504c77" d="M 33.5,31.5 C 36.0828,32.0915 36.0828,32.7582 33.5,33.5C 30.1983,34.0816 26.865,34.4149 23.5,34.5C 19.5313,34.7058 15.8646,34.0392 12.5,32.5C 19.6866,32.8245 26.6866,32.4912 33.5,31.5 Z"/></g>
</svg>
