<?xml version="1.0" encoding="UTF-8"?>
<!DOCTYPE svg PUBLIC "-//W3C//DTD SVG 1.1//EN" "http://www.w3.org/Graphics/SVG/1.1/DTD/svg11.dtd">
<svg xmlns="http://www.w3.org/2000/svg" version="1.1" width="100px" height="37px" style="shape-rendering:geometricPrecision; text-rendering:geometricPrecision; image-rendering:optimizeQuality; fill-rule:evenodd; clip-rule:evenodd" xmlns:xlink="http://www.w3.org/1999/xlink">
<g><path style="opacity:0.677" fill="#bcdbef" d="M 42.5,9.5 C 41.8333,9.5 41.1667,9.5 40.5,9.5C 37.592,8.43089 34.592,8.26423 31.5,9C 32.2524,9.67076 32.5858,10.5041 32.5,11.5C 32.1667,11.5 31.8333,11.5 31.5,11.5C 30.209,11.7373 29.209,11.404 28.5,10.5C 28.8333,9.83333 29.1667,9.16667 29.5,8.5C 34.0502,5.64525 38.3835,5.97858 42.5,9.5 Z"/></g>
<g><path style="opacity:0.998" fill="#b8dff4" d="M 40.5,9.5 C 38.369,10.3138 36.0356,10.8138 33.5,11C 34.056,11.3826 34.3893,11.8826 34.5,12.5C 34.1583,13.3382 33.4916,13.6716 32.5,13.5C 32.5,12.8333 32.5,12.1667 32.5,11.5C 32.5858,10.5041 32.2524,9.67076 31.5,9C 34.592,8.26423 37.592,8.43089 40.5,9.5 Z"/></g>
<g><path style="opacity:0.106" fill="#5d7197" d="M 29.5,8.5 C 29.1667,9.16667 28.8333,9.83333 28.5,10.5C 28.1667,10.5 27.8333,10.5 27.5,10.5C 27.5,9.16667 28.1667,8.5 29.5,8.5 Z"/></g>
<g><path style="opacity:0.91" fill="#bde1f4" d="M 40.5,9.5 C 41.1667,9.5 41.8333,9.5 42.5,9.5C 43.8333,10.1667 44.8333,11.1667 45.5,12.5C 45.5,13.1667 45.5,13.8333 45.5,14.5C 44.1667,14.5 42.8333,14.5 41.5,14.5C 39.7211,12.6565 37.3878,11.9898 34.5,12.5C 34.3893,11.8826 34.056,11.3826 33.5,11C 36.0356,10.8138 38.369,10.3138 40.5,9.5 Z"/></g>
<g><path style="opacity:1" fill="#e1b9b4" d="M 27.5,10.5 C 27.8333,10.5 28.1667,10.5 28.5,10.5C 29.209,11.404 30.209,11.7373 31.5,11.5C 31.6068,13.3786 31.1068,13.7119 30,12.5C 26.6764,14.6926 26.8431,16.026 30.5,16.5C 30.5,17.5 30.5,18.5 30.5,19.5C 29.1667,19.5 27.8333,19.5 26.5,19.5C 25.6908,17.9724 25.0241,16.3057 24.5,14.5C 24.0882,12.0274 25.0882,10.6941 27.5,10.5 Z"/></g>
<g><path style="opacity:1" fill="#c0ccdb" d="M 34.5,12.5 C 37.3878,11.9898 39.7211,12.6565 41.5,14.5C 39.8008,14.3398 38.1341,14.5065 36.5,15C 35.8828,17.277 35.2161,19.4437 34.5,21.5C 33.8333,20.1667 33.1667,20.1667 32.5,21.5C 31.3478,22.625 30.3478,22.625 29.5,21.5C 29.246,20.6679 28.246,20.0013 26.5,19.5C 27.8333,19.5 29.1667,19.5 30.5,19.5C 31.4582,17.6976 32.1249,15.6976 32.5,13.5C 33.4916,13.6716 34.1583,13.3382 34.5,12.5 Z"/></g>
<g><path style="opacity:1" fill="#dbb9b7" d="M 31.5,11.5 C 31.8333,11.5 32.1667,11.5 32.5,11.5C 32.5,12.1667 32.5,12.8333 32.5,13.5C 32.1249,15.6976 31.4582,17.6976 30.5,19.5C 30.5,18.5 30.5,17.5 30.5,16.5C 26.8431,16.026 26.6764,14.6926 30,12.5C 31.1068,13.7119 31.6068,13.3786 31.5,11.5 Z"/></g>
<g><path style="opacity:1" fill="#a0bfdb" d="M 41.5,14.5 C 42.8333,14.5 44.1667,14.5 45.5,14.5C 45.5,15.5 45.5,16.5 45.5,17.5C 45.1667,17.5 44.8333,17.5 44.5,17.5C 43.448,17.3505 42.448,17.5172 41.5,18C 42.3802,19.3561 42.7135,20.8561 42.5,22.5C 41.1667,22.5 39.8333,22.5 38.5,22.5C 38.7852,20.712 38.4519,19.0453 37.5,17.5C 36.5344,19.396 36.2011,21.396 36.5,23.5C 36.1667,23.5 35.8333,23.5 35.5,23.5C 34.6618,23.1583 34.3284,22.4916 34.5,21.5C 35.2161,19.4437 35.8828,17.277 36.5,15C 38.1341,14.5065 39.8008,14.3398 41.5,14.5 Z"/></g>
<g><path style="opacity:0.679" fill="#6d82a2" d="M 72.5,17.5 C 71.5489,18.9187 71.2155,20.5853 71.5,22.5C 69.6112,21.6201 67.6112,21.6201 65.5,22.5C 65.5,21.5 65.5,20.5 65.5,19.5C 65.5,18.8333 65.5,18.1667 65.5,17.5C 65.5,16.8333 65.5,16.1667 65.5,15.5C 66.209,14.596 67.209,14.2627 68.5,14.5C 68.281,15.675 68.6143,16.675 69.5,17.5C 70.6868,16.3473 71.6868,16.3473 72.5,17.5 Z"/></g>
<g><path style="opacity:0.92" fill="#6f85a7" d="M 56.5,15.5 C 57.038,17.1172 57.3713,18.7839 57.5,20.5C 56.1266,20.3433 54.7932,20.51 53.5,21C 55.4727,21.4955 57.4727,21.6621 59.5,21.5C 56.3752,22.4794 53.0419,22.8128 49.5,22.5C 49.5,20.1667 49.5,17.8333 49.5,15.5C 51.8333,15.5 54.1667,15.5 56.5,15.5 Z"/></g>
<g><path style="opacity:0.729" fill="#c0dcf0" d="M 24.5,14.5 C 25.0241,16.3057 25.6908,17.9724 26.5,19.5C 28.246,20.0013 29.246,20.6679 29.5,21.5C 28.5,21.5 27.5,21.5 26.5,21.5C 26.5,22.5 26.5,23.5 26.5,24.5C 25.8333,24.8333 25.1667,25.1667 24.5,25.5C 21.8866,21.7441 21.8866,18.0774 24.5,14.5 Z"/></g>
<g><path style="opacity:0.425" fill="#c3def3" d="M 45.5,12.5 C 47.7395,16.5812 48.0728,20.9146 46.5,25.5C 46.1667,25.5 45.8333,25.5 45.5,25.5C 45.5,22.8333 45.5,20.1667 45.5,17.5C 45.5,16.5 45.5,15.5 45.5,14.5C 45.5,13.8333 45.5,13.1667 45.5,12.5 Z"/></g>
<g><path style="opacity:0.69" fill="#677ea5" d="M 59.5,15.5 C 59.5,17.5 59.5,19.5 59.5,21.5C 57.4727,21.6621 55.4727,21.4955 53.5,21C 54.7932,20.51 56.1266,20.3433 57.5,20.5C 57.3713,18.7839 57.038,17.1172 56.5,15.5C 57.6522,14.375 58.6522,14.375 59.5,15.5 Z"/></g>
<g><path style="opacity:0.648" fill="#687fa4" d="M 72.5,17.5 C 73.1667,17.8333 73.8333,18.1667 74.5,18.5C 75.5,18.5 76.5,18.5 77.5,18.5C 77.5,19.5 77.5,20.5 77.5,21.5C 78.791,21.2627 79.791,21.596 80.5,22.5C 77.3243,22.108 74.3243,22.108 71.5,22.5C 71.2155,20.5853 71.5489,18.9187 72.5,17.5 Z"/></g>
<g><path style="opacity:0.415" fill="#6c7fa2" d="M 80.5,22.5 C 79.791,21.596 78.791,21.2627 77.5,21.5C 77.5,20.5 77.5,19.5 77.5,18.5C 76.5,18.5 75.5,18.5 74.5,18.5C 74.4701,17.5028 74.9701,16.8361 76,16.5C 78.6176,16.8833 81.1176,16.8833 83.5,16.5C 85.2825,18.0225 85.9492,20.0225 85.5,22.5C 83.8333,22.5 82.1667,22.5 80.5,22.5 Z"/></g>
<g><path style="opacity:0.631" fill="#687ca0" d="M 59.5,15.5 C 61.5,15.5 63.5,15.5 65.5,15.5C 65.5,16.1667 65.5,16.8333 65.5,17.5C 62.8333,18.1667 62.8333,18.8333 65.5,19.5C 65.5,20.5 65.5,21.5 65.5,22.5C 63.4352,22.4828 61.4352,22.1495 59.5,21.5C 59.5,19.5 59.5,17.5 59.5,15.5 Z"/></g>
<g><path style="opacity:1" fill="#cddeeb" d="M 44.5,17.5 C 44.5,19.8333 44.5,22.1667 44.5,24.5C 41.6146,24.8064 38.9479,24.4731 36.5,23.5C 36.2011,21.396 36.5344,19.396 37.5,17.5C 38.4519,19.0453 38.7852,20.712 38.5,22.5C 39.8333,22.5 41.1667,22.5 42.5,22.5C 42.7135,20.8561 42.3802,19.3561 41.5,18C 42.448,17.5172 43.448,17.3505 44.5,17.5 Z"/></g>
<g><path style="opacity:1" fill="#aba5b7" d="M 29.5,21.5 C 30.3478,22.625 31.3478,22.625 32.5,21.5C 32.5,22.8333 32.5,24.1667 32.5,25.5C 30.2646,25.7947 28.2646,25.4614 26.5,24.5C 26.5,23.5 26.5,22.5 26.5,21.5C 27.5,21.5 28.5,21.5 29.5,21.5 Z"/></g>
<g><path style="opacity:1" fill="#b0c8e0" d="M 44.5,17.5 C 44.8333,17.5 45.1667,17.5 45.5,17.5C 45.5,20.1667 45.5,22.8333 45.5,25.5C 42.1667,25.5 38.8333,25.5 35.5,25.5C 35.5,24.8333 35.5,24.1667 35.5,23.5C 35.8333,23.5 36.1667,23.5 36.5,23.5C 38.9479,24.4731 41.6146,24.8064 44.5,24.5C 44.5,22.1667 44.5,19.8333 44.5,17.5 Z"/></g>
<g><path style="opacity:0.998" fill="#c2bac6" d="M 34.5,21.5 C 34.3284,22.4916 34.6618,23.1583 35.5,23.5C 35.5,24.1667 35.5,24.8333 35.5,25.5C 32.0381,26.4816 28.3714,26.815 24.5,26.5C 24.5,26.1667 24.5,25.8333 24.5,25.5C 25.1667,25.1667 25.8333,24.8333 26.5,24.5C 28.2646,25.4614 30.2646,25.7947 32.5,25.5C 32.5,24.1667 32.5,22.8333 32.5,21.5C 33.1667,20.1667 33.8333,20.1667 34.5,21.5 Z"/></g>
<g><path style="opacity:0.648" fill="#cdd0e1" d="M 35.5,25.5 C 38.8333,25.5 42.1667,25.5 45.5,25.5C 45.8333,25.5 46.1667,25.5 46.5,25.5C 47.7514,26.472 47.418,27.1386 45.5,27.5C 38.2777,29.005 31.2777,28.6717 24.5,26.5C 28.3714,26.815 32.0381,26.4816 35.5,25.5 Z"/></g>
</svg>
