<?xml version="1.0" encoding="UTF-8"?>
<!DOCTYPE svg PUBLIC "-//W3C//DTD SVG 1.1//EN" "http://www.w3.org/Graphics/SVG/1.1/DTD/svg11.dtd">
<svg xmlns="http://www.w3.org/2000/svg" version="1.1" width="41px" height="15px" style="shape-rendering:geometricPrecision; text-rendering:geometricPrecision; image-rendering:optimizeQuality; fill-rule:evenodd; clip-rule:evenodd" xmlns:xlink="http://www.w3.org/1999/xlink">
<g><path style="opacity:0.561" fill="#badcf0" d="M 17.5,3.5 C 15.901,3.23219 14.5676,3.56552 13.5,4.5C 13.1667,4.5 12.8333,4.5 12.5,4.5C 11.8333,4.5 11.5,4.16667 11.5,3.5C 13.3576,1.26888 15.3576,1.26888 17.5,3.5 Z"/></g>
<g><path style="opacity:0.139" fill="#bddff3" d="M 13.5,4.5 C 14.5676,3.56552 15.901,3.23219 17.5,3.5C 18.5,3.83333 19.1667,4.5 19.5,5.5C 19.5,6.5 19.5,7.5 19.5,8.5C 19.5,8.83333 19.5,9.16667 19.5,9.5C 18.596,8.79105 18.2627,7.79105 18.5,6.5C 18.1583,5.66175 17.4916,5.32842 16.5,5.5C 15.791,4.59603 14.791,4.26269 13.5,4.5 Z"/></g>
<g><path style="opacity:1" fill="#dcb8b5" d="M 11.5,3.5 C 11.5,4.16667 11.8333,4.5 12.5,4.5C 12.7148,6.17876 12.0481,7.17876 10.5,7.5C 10.6716,6.50838 10.3382,5.84171 9.5,5.5C 9.5,4.16667 10.1667,3.5 11.5,3.5 Z"/></g>
<g><path style="opacity:0.976" fill="#a6c7e0" d="M 16.5,5.5 C 17.4916,5.32842 18.1583,5.66175 18.5,6.5C 16.6214,6.39318 16.2881,6.89318 17.5,8C 16.9558,8.71719 16.2891,9.21719 15.5,9.5C 15.67,8.17793 15.3366,7.01127 14.5,6C 15.0944,5.53566 15.7611,5.36899 16.5,5.5 Z"/></g>
<g><path style="opacity:0.365" fill="#6c82a3" d="M 26.5,5.5 C 27.4916,5.32842 28.1583,5.66175 28.5,6.5C 28.5,7.5 28.5,8.5 28.5,9.5C 27.8333,9.5 27.1667,9.5 26.5,9.5C 26.5,8.16667 26.5,6.83333 26.5,5.5 Z"/></g>
<g><path style="opacity:1" fill="#b8cde1" d="M 13.5,4.5 C 14.791,4.26269 15.791,4.59603 16.5,5.5C 15.7611,5.36899 15.0944,5.53566 14.5,6C 15.3366,7.01127 15.67,8.17793 15.5,9.5C 15.5,9.83333 15.5,10.1667 15.5,10.5C 15.1667,10.5 14.8333,10.5 14.5,10.5C 14.5,9.83333 14.5,9.16667 14.5,8.5C 13.7659,7.29208 13.4326,5.95875 13.5,4.5 Z"/></g>
<g><path style="opacity:0.614" fill="#6c82a5" d="M 19.5,5.5 C 20.5,5.5 21.5,5.5 22.5,5.5C 23.9143,7.59829 23.2476,8.59829 20.5,8.5C 20.1667,8.5 19.8333,8.5 19.5,8.5C 19.5,7.5 19.5,6.5 19.5,5.5 Z"/></g>
<g><path style="opacity:0.335" fill="#677da3" d="M 28.5,6.5 C 29.5,6.5 30.5,6.5 31.5,6.5C 31.5,7.5 31.5,8.5 31.5,9.5C 30.5,9.5 29.5,9.5 28.5,9.5C 28.5,8.5 28.5,7.5 28.5,6.5 Z"/></g>
<g><path style="opacity:0.299" fill="#6a80a5" d="M 31.5,6.5 C 32.8333,6.5 34.1667,6.5 35.5,6.5C 35.5,7.5 35.5,8.5 35.5,9.5C 34.1667,9.5 32.8333,9.5 31.5,9.5C 31.5,8.5 31.5,7.5 31.5,6.5 Z"/></g>
<g><path style="opacity:0.89" fill="#bedcee" d="M 9.5,5.5 C 10.3382,5.84171 10.6716,6.50838 10.5,7.5C 10.5,7.83333 10.5,8.16667 10.5,8.5C 10.5,8.83333 10.5,9.16667 10.5,9.5C 10.1667,9.5 9.83333,9.5 9.5,9.5C 8.16667,8.16667 8.16667,6.83333 9.5,5.5 Z"/></g>
<g><path style="opacity:1" fill="#c0c7d4" d="M 12.5,4.5 C 12.8333,4.5 13.1667,4.5 13.5,4.5C 13.4326,5.95875 13.7659,7.29208 14.5,8.5C 13.1667,8.5 11.8333,8.5 10.5,8.5C 10.5,8.16667 10.5,7.83333 10.5,7.5C 12.0481,7.17876 12.7148,6.17876 12.5,4.5 Z"/></g>
<g><path style="opacity:0.113" fill="#687ea4" d="M 22.5,5.5 C 23.8333,5.5 25.1667,5.5 26.5,5.5C 26.5,6.83333 26.5,8.16667 26.5,9.5C 24.2646,9.79472 22.2646,9.46138 20.5,8.5C 23.2476,8.59829 23.9143,7.59829 22.5,5.5 Z"/></g>
<g><path style="opacity:0.969" fill="#b8b4c5" d="M 10.5,8.5 C 11.8333,8.5 13.1667,8.5 14.5,8.5C 14.5,9.16667 14.5,9.83333 14.5,10.5C 12.901,10.7678 11.5676,10.4345 10.5,9.5C 10.5,9.16667 10.5,8.83333 10.5,8.5 Z"/></g>
<g><path style="opacity:0.857" fill="#bed0e2" d="M 18.5,6.5 C 18.2627,7.79105 18.596,8.79105 19.5,9.5C 19.5,9.83333 19.5,10.1667 19.5,10.5C 18.1667,10.5 16.8333,10.5 15.5,10.5C 15.5,10.1667 15.5,9.83333 15.5,9.5C 16.2891,9.21719 16.9558,8.71719 17.5,8C 16.2881,6.89318 16.6214,6.39318 18.5,6.5 Z"/></g>
<g><path style="opacity:0.263" fill="#c0c4d5" d="M 9.5,9.5 C 9.83333,9.5 10.1667,9.5 10.5,9.5C 11.5676,10.4345 12.901,10.7678 14.5,10.5C 14.8333,10.5 15.1667,10.5 15.5,10.5C 16.8333,10.5 18.1667,10.5 19.5,10.5C 18.036,11.1599 16.3693,11.4932 14.5,11.5C 12.3603,11.4439 10.6936,10.7773 9.5,9.5 Z"/></g>
</svg>
